# xmcd
#
# Track frame offsets: 
#        150
#        12497
#        29197
#        55502
#        79392
#        97970
#        129575
#        157255
#        181672
#        205855
#
# Disc length: 3123 seconds
#
# Revision: 4
# Processed by: cddbd v1.5.2PL0 Copyright (c) Steve Scherf et al.
# Submitted via: ExactAudioCopy v0.99pb5
#
DISCID=830c310a
DTITLE=Steve Winwood - Live USA
DYEAR=1987
DGENRE=Psychedelic Rock
TTITLE0=Low Spark
TTITLE1=Glad
TTITLE2=Freedom Rider
TTITLE3=While You See A Chance
TTITLE4=Valerie
TTITLE5=Split Descision's
TTITLE6=I'm A Man
TTITLE7=Higher Love
TTITLE8=Back In The Nightlife
TTITLE9=Gimme Some Lovin'
EXTD=ID3G:  17 YEAR: 1987
EXTT0=
EXTT1=
EXTT2=
EXTT3=
EXTT4=
EXTT5=
EXTT6=
EXTT7=
EXTT8=
EXTT9=
PLAYORDER=
